<?xml version="1.0" encoding="utf-8"?>
<!-- Generator: Adobe Illustrator 24.0.2, SVG Export Plug-In . SVG Version: 6.00 Build 0)  -->
<svg version="1.1" id="Layer_1" xmlns="http://www.w3.org/2000/svg" xmlns:xlink="http://www.w3.org/1999/xlink" x="0px" y="0px"
	 viewBox="0 0 512 512" enable-background="new 0 0 512 512" xml:space="preserve">
<g>
	<g>
		<rect x="8.6" y="85.6" fill="#FF916E" width="474.3" height="352.2"/>
	</g>
	<g>
		<rect x="26" y="104.6" fill="#F77B55" width="437.1" height="320.9"/>
	</g>
	<g>
		<rect x="20.5" y="90.8" fill="#F2F2F2" width="205.7" height="325"/>
	</g>
	<g>
		<rect x="265" y="90.8" fill="#F2F2F2" width="205.7" height="325"/>
	</g>
	<g>
		<path fill="#CDCCCA" d="M224.7,415.8l20.1,6.3v-322l-18.6-9.3C226.2,90.8,224.7,418.4,224.7,415.8z"/>
	</g>
	<g>
		<path fill="#F2F2F2" d="M265,415.8l-20.1,6.3v-322l20.1-9.3C265,90.8,265,418.4,265,415.8z"/>
	</g>
	<g>
		<g>
			<rect x="50.2" y="182.9" fill="#CDCCCA" width="98.5" height="7"/>
		</g>
		<g>
			<rect x="169.9" y="171.7" fill="#FFFFFF" width="29.6" height="29.6"/>
		</g>
	</g>
	<g>
		<g>
			<rect x="50.2" y="227.3" fill="#CDCCCA" width="98.5" height="7"/>
		</g>
		<g>
			<rect x="169.9" y="216" fill="#FFFFFF" width="29.6" height="29.6"/>
		</g>
	</g>
	<g>
		<g>
			<g>
				<rect x="50.2" y="265.6" fill="#CDCCCA" width="98.5" height="7"/>
			</g>
			<g>
				<rect x="50.2" y="277.6" fill="#CDCCCA" width="98.5" height="7"/>
			</g>
		</g>
		<g>
			<rect x="169.9" y="260.3" fill="#FFFFFF" width="29.6" height="29.6"/>
		</g>
	</g>
	<g>
		<g>
			<g>
				<rect x="50.2" y="354.5" fill="#CDCCCA" width="98.5" height="7"/>
			</g>
			<g>
				<rect x="50.2" y="366.4" fill="#CDCCCA" width="98.5" height="7"/>
			</g>
		</g>
		<g>
			<rect x="169.9" y="349.2" fill="#FFFFFF" width="29.6" height="29.6"/>
		</g>
	</g>
	<g>
		<g>
			<rect x="50.2" y="316" fill="#CDCCCA" width="98.5" height="7"/>
		</g>
		<g>
			<rect x="169.9" y="304.7" fill="#FFFFFF" width="29.6" height="29.6"/>
		</g>
	</g>
	<g>
		<g>
			
				<rect x="274.4" y="189.8" transform="matrix(6.123234e-17 -1 1 6.123234e-17 221.1994 609.5046)" fill="#77D0DE" width="282" height="8.7"/>
		</g>
		<g>
			
				<rect x="291.8" y="189.8" transform="matrix(6.123234e-17 -1 1 6.123234e-17 238.6257 626.9309)" fill="#77D0DE" width="282" height="8.7"/>
		</g>
		<g>
			<rect x="419.7" y="53.2" fill="#92E0EA" width="8.7" height="282"/>
		</g>
		<g>
			<polygon fill="#FFDB7A" points="437.1,335.1 411,335.1 424.5,397 			"/>
		</g>
		<g>
			<polygon fill="#353F49" points="424.5,397 419.1,372.3 429.9,372.3 			"/>
		</g>
	</g>
	<g>
		<g>
			<polygon fill="#333D47" points="183.1,196.7 172,186.3 174.8,183.4 182.7,190.9 193.7,177.6 196.7,180.1 			"/>
		</g>
	</g>
	<g>
		<g>
			<polygon fill="#333D47" points="183.3,240.4 172.3,229.9 175,227 183,234.5 193.9,221.2 197,223.8 			"/>
		</g>
	</g>
	<g>
		<rect x="49.2" y="129.2" fill="#CDCCCA" width="152.1" height="24.6"/>
	</g>
	<g>
		<polygon fill="#FFDB7A" points="278.5,85.6 269.2,96 284.3,96 293.2,85.6 		"/>
	</g>
	<g>
		<polygon fill="#FECA5C" points="269.2,95.8 284.5,95.8 284.5,463.7 276.8,458.5 269.2,463.7 		"/>
	</g>
</g>
</svg>
